<?xml version="1.0" encoding="UTF-8"?>
<svg id="Layer_2" xmlns="http://www.w3.org/2000/svg" viewBox="0 0 256.12 256.08">
  <defs>
    <style>
      .cls-1 {
        fill: #f5f5f5;
      }
    </style>
  </defs>
  <g id="_Шар_1" data-name="Шар_1">
    <path class="cls-1" d="M15.96,256.08c-5.95-.23-11.06-3.22-14.1-9.24-3.07-6.07-2.25-11.97,1.7-17.4,1.16-1.6,2.68-2.96,4.09-4.37,30.75-30.76,61.51-61.52,92.26-92.27q4.74-4.74-.17-9.66C68.64,92.02,37.55,60.88,6.39,29.82,1.56,25.01-1.08,19.58.56,12.75,3.42.82,17.5-3.91,27.1,3.77c1.42,1.14,2.68,2.49,3.98,3.79,31.11,31.1,62.28,62.15,93.24,93.41,3.25,3.29,4.75,2.81,7.69-.16,31.36-31.57,62.89-62.97,94.29-94.48,4.68-4.69,9.96-7.32,16.59-5.98,11.97,2.42,17.17,16.5,9.78,26.28-1.2,1.58-2.68,2.96-4.09,4.37-31.1,31.12-62.15,62.28-93.41,93.24-3.27,3.24-2.83,4.73.15,7.69,31.57,31.35,62.97,62.88,94.47,94.3,5.1,5.09,7.74,10.8,5.51,18.01-3.52,11.39-16.93,15.49-26.23,8.02-1.42-1.14-2.68-2.5-3.98-3.79-31-30.99-62.03-61.94-92.91-93.04-3.05-3.07-4.68-3.57-8.05-.17-31.19,31.49-62.62,62.76-93.92,94.14-3.79,3.8-7.93,6.56-14.27,6.65Z"/>
  </g>
</svg>