<svg xmlns="http://www.w3.org/2000/svg" viewBox="0 0 4329.41 1244.44"><defs><style>.cls-1{fill:none;stroke:#222;stroke-miterlimit:10;stroke-width:10px;}</style></defs><g id="Шар_2" data-name="Шар 2"><g id="Шар_1-2" data-name="Шар 1"><path class="cls-1" d="M2028.07,0V1244.44"/><path class="cls-1" d="M1761.93,0V1244.44"/><path class="cls-1" d="M1495.79,0V1244.44"/><path class="cls-1" d="M1229.65,0V1244.44"/><path class="cls-1" d="M963.52,0V1244.44"/><path class="cls-1" d="M697.38,0V1244.44"/><path class="cls-1" d="M431.24,0V1244.44"/><path class="cls-1" d="M165.1,0V1244.44"/><path class="cls-1" d="M4157.18,0V1244.44"/><path class="cls-1" d="M3891,0V1244.44"/><path class="cls-1" d="M3624.9,0V1244.44"/><path class="cls-1" d="M3358.77,0V1244.44"/><path class="cls-1" d="M3092.63,0V1244.44"/><path class="cls-1" d="M2826.49,0V1244.44"/><path class="cls-1" d="M2560.35,0V1244.44"/><path class="cls-1" d="M2294.21,0V1244.44"/><path class="cls-1" d="M4329.41,1151.7H0"/><path class="cls-1" d="M4329.41,885.56H0"/><path class="cls-1" d="M4329.41,619.43H0"/><path class="cls-1" d="M4329.41,353.29H0"/><path class="cls-1" d="M4329.41,87.15H0"/></g></g></svg>