<?xml version="1.0" encoding="UTF-8"?>
<svg id="Layer_2" xmlns="http://www.w3.org/2000/svg" viewBox="0 0 2163.25 1885.19">
  <defs>
    <style>
      .cls-1 {
        letter-spacing: -.07em;
      }

      .cls-2 {
        fill: #4d4d4d;
      }

      .cls-3 {
        font-size: 279.03px;
      }

      .cls-3, .cls-4 {
        font-family: Plast, Plast;
      }

      .cls-5 {
        fill: #fff;
      }

      .cls-6 {
        fill: blue;
      }

      .cls-7 {
        letter-spacing: -.07em;
      }

      .cls-4 {
        font-size: 122.91px;
      }
    </style>
  </defs>
  <g id="_Шар_1" data-name="Шар_1">
    <g>
      <g>
        <g>
          <polygon class="cls-5" points="1081.62 1843.16 2121.43 42.16 41.82 42.16 1081.62 1843.16"/>
          <path class="cls-2" d="M1117.89,1864.35c9.33-16.17,18.67-32.33,28-48.5,25.17-43.6,50.35-87.2,75.52-130.81,37.32-64.64,74.64-129.29,111.97-193.93,45.53-78.87,91.07-157.74,136.6-236.61,49.7-86.08,99.4-172.16,149.1-258.24,50.51-87.48,101.02-174.97,151.53-262.45,46.77-81.01,93.55-162.03,140.32-243.04,39.67-68.71,79.34-137.41,119-206.12,28.52-49.4,57.04-98.79,85.56-148.19,13.48-23.34,27.25-46.54,40.44-70.05.58-1.03,1.18-2.04,1.77-3.06,15.91-27.55-4.3-63.2-36.27-63.2h-206.79c-74.85,0-149.7,0-224.54,0-90.69,0-181.39,0-272.08,0h-300.03c-100.27,0-200.54,0-300.81,0-94.13,0-188.26,0-282.39,0H126.13C99.21.16,72.26-.2,45.35.16c-1.18.02-2.35,0-3.53,0C9.85.16-10.36,35.8,5.55,63.35c9.32,16.15,18.64,32.29,27.97,48.44,25.14,43.55,50.29,87.1,75.43,130.65,37.42,64.82,74.85,129.64,112.27,194.46,45.35,78.54,90.69,157.08,136.04,235.63,50.01,86.61,100.01,173.22,150.02,259.83,50.13,86.84,100.27,173.67,150.4,260.51,47.07,81.52,94.13,163.04,141.2,244.56,39.51,68.43,79.01,136.85,118.52,205.28,28.6,49.54,57.21,99.09,85.81,148.63,13.46,23.31,26.62,46.83,40.39,69.96.6,1.01,1.18,2.04,1.77,3.06,10.99,19.03,38.47,27.31,57.46,15.07,19.2-12.38,26.83-37.1,15.07-57.46-9.32-16.15-18.64-32.29-27.97-48.44-25.14-43.55-50.29-87.1-75.43-130.65-37.42-64.82-74.85-129.64-112.27-194.46-45.35-78.54-90.69-157.08-136.04-235.63-50.01-86.61-100.01-173.22-150.02-259.83-50.13-86.84-100.27-173.67-150.4-260.51-47.07-81.52-94.13-163.04-141.2-244.56-39.51-68.43-79.01-136.85-118.52-205.28-28.6-49.54-57.21-99.09-85.81-148.63-13.45-23.3-26.44-46.95-40.39-69.96-.61-1.01-1.18-2.04-1.77-3.06-12.09,21.07-24.18,42.13-36.27,63.2h431.33c90.69,0,181.39,0,272.08,0h300.03c100.27,0,200.54,0,300.81,0,94.13,0,188.26,0,282.39,0,79.01,0,158.03,0,237.04,0h171.62c26.9,0,53.88.58,80.78,0,1.18-.03,2.36,0,3.53,0-12.09-21.07-24.18-42.13-36.27-63.2-9.33,16.17-18.67,32.33-28,48.5-25.17,43.6-50.35,87.2-75.52,130.81-37.32,64.64-74.64,129.29-111.97,193.93-45.53,78.87-91.07,157.74-136.6,236.61-49.7,86.08-99.4,172.16-149.1,258.24-50.51,87.48-101.02,174.97-151.53,262.45-46.77,81.01-93.55,162.03-140.32,243.04-39.67,68.71-79.34,137.41-119,206.12-28.52,49.4-57.04,98.79-85.56,148.19-13.48,23.34-27.25,46.54-40.44,70.05-.58,1.03-1.18,2.04-1.77,3.06-10.99,19.04-5.06,46.83,15.07,57.46,20.04,10.59,45.73,5.26,57.46-15.07Z"/>
        </g>
        <text class="cls-3" transform="translate(384.62 306.43)"><tspan x="0" y="0">ЗВИТЯ</tspan><tspan class="cls-1" x="1025.69" y="0">Г</tspan><tspan x="1173.01" y="0">А</tspan></text>
        <path d="M349.65,175.16c-38,1.33-76,2.67-114,4-31.52,1.11-52.72,34.92-36.27,63.2,110.08,189.19,220.15,378.37,330.23,567.56,110.08,189.19,220.15,378.37,330.23,567.56,61.85,106.3,123.69,212.59,185.54,318.89,15.81,27.18,56.75,27.31,72.53,0,110.71-191.57,221.43-383.13,332.14-574.7,110.15-190.59,220.3-381.18,330.45-571.77,62.14-107.51,124.27-215.02,186.41-322.53,15.81-27.35-4.22-63.5-36.27-63.2-35,.33-70,.67-105,1-21.96.21-43.02,19.17-42,42,1.01,22.58,18.46,42.22,42,42,35-.33,70-.67,105-1-12.09-21.07-24.18-42.13-36.27-63.2-110.71,191.57-221.43,383.13-332.14,574.7-110.15,190.59-220.3,381.18-330.45,571.77-62.14,107.51-124.27,215.02-186.41,322.53h72.53c-110.08-189.19-220.15-378.37-330.23-567.56-110.08-189.19-220.15-378.37-330.23-567.56-61.85-106.3-123.69-212.59-185.54-318.89-12.09,21.07-24.18,42.13-36.27,63.2,38-1.33,76-2.67,114-4,21.93-.77,43.04-18.77,42-42s-18.48-42.83-42-42h0Z"/>
      </g>
      <polygon points="1082.08 1759.92 1152.96 1637.16 1011.2 1637.16 1082.08 1759.92"/>
    </g>
    <g>
      <polygon points="1081.62 1131.16 1517.52 376.16 645.72 376.16 1081.62 1131.16"/>
      <path d="M1117.89,1152.35c3.9-6.76,7.8-13.52,11.71-20.28l31.69-54.89c15.61-27.04,31.22-54.08,46.84-81.12,19.12-33.12,38.25-66.25,57.37-99.37,20.87-36.14,41.73-72.28,62.6-108.42,21.06-36.48,42.12-72.96,63.19-109.44,19.72-34.15,39.43-68.3,59.15-102.45,16.59-28.74,33.19-57.49,49.78-86.23,11.94-20.68,23.88-41.36,35.82-62.04,5.68-9.83,11.45-19.62,17.03-29.5.24-.42.48-.83.72-1.25,15.91-27.55-4.3-63.2-36.27-63.2h-86.8c-31.22,0-62.45,0-93.67,0-38.25,0-76.49,0-114.74,0-41.73,0-83.46,0-125.2,0s-84.25,0-126.37,0c-39.43,0-78.86,0-118.29,0h-171.21c-11.35,0-22.72-.11-34.07,0-.48,0-.96,0-1.45,0-31.96,0-52.17,35.64-36.27,63.2,3.9,6.76,7.8,13.52,11.71,20.28,10.56,18.3,21.13,36.6,31.69,54.89,15.61,27.04,31.22,54.08,46.84,81.12,19.12,33.12,38.25,66.25,57.37,99.37,20.87,36.14,41.73,72.28,62.6,108.42,21.06,36.48,42.12,72.96,63.19,109.44,19.72,34.15,39.43,68.3,59.15,102.45,16.59,28.74,33.19,57.49,49.78,86.23,11.94,20.68,23.88,41.36,35.82,62.04,5.68,9.83,11.26,19.73,17.03,29.5.25.41.48.83.72,1.25,5.26,9.11,14.97,16.51,25.1,19.3s23.44,1.52,32.36-4.23c19.2-12.38,26.83-37.1,15.07-57.46-3.9-6.76-7.8-13.52-11.71-20.28-10.56-18.3-21.13-36.6-31.69-54.89-15.61-27.04-31.22-54.08-46.84-81.12-19.12-33.12-38.25-66.25-57.37-99.37-20.87-36.14-41.73-72.28-62.6-108.42-21.06-36.48-42.12-72.96-63.19-109.44-19.72-34.15-39.43-68.3-59.15-102.45-16.59-28.74-33.19-57.49-49.78-86.23-11.94-20.68-23.88-41.36-35.82-62.04-5.68-9.83-11.23-19.75-17.03-29.5-.25-.41-.48-.83-.72-1.25-12.09,21.07-24.18,42.13-36.27,63.2h180.47c38.25,0,76.49,0,114.74,0,41.73,0,83.46,0,125.2,0s84.25,0,126.37,0c39.43,0,78.86,0,118.29,0,33.19,0,66.38,0,99.57,0,23.88,0,47.76,0,71.64,0,11.35,0,22.72.15,34.07,0,.48,0,.96,0,1.45,0-12.09-21.07-24.18-42.13-36.27-63.2-3.9,6.76-7.8,13.52-11.71,20.28-10.56,18.3-21.13,36.6-31.69,54.89-15.61,27.04-31.22,54.08-46.84,81.12-19.12,33.12-38.25,66.25-57.37,99.37-20.87,36.14-41.73,72.28-62.6,108.42-21.06,36.48-42.12,72.96-63.19,109.44-19.72,34.15-39.43,68.3-59.15,102.45-16.59,28.74-33.19,57.49-49.78,86.23-11.94,20.68-23.88,41.36-35.82,62.04-5.68,9.83-11.45,19.62-17.03,29.5-.24.42-.48.83-.72,1.25-5.47,9.47-7.14,21.79-4.23,32.36,2.68,9.74,10.22,20.3,19.3,25.1,20.04,10.59,45.73,5.26,57.46-15.07Z"/>
    </g>
    <text class="cls-4" transform="translate(448.85 398.51) rotate(60)"><tspan x="0" y="0">ПЕРЕМА</tspan><tspan class="cls-7" x="581.61" y="0">Г</tspan><tspan x="646.5" y="0">АЮТЬ</tspan></text>
    <text class="cls-4" transform="translate(1274.2 1162.07) rotate(-60)"><tspan x="0" y="0">ВІДВАЖНІ</tspan></text>
    <g>
      <polygon class="cls-6" points="1081.8 1130.93 1318.38 721.16 845.22 721.16 1081.8 1130.93"/>
      <path class="cls-6" d="M1118.07,1152.13c7.88-13.66,15.77-27.31,23.65-40.97,18.76-32.49,37.52-64.99,56.28-97.48,22.85-39.58,45.7-79.15,68.55-118.73,19.62-33.98,39.24-67.96,58.86-101.94,9.61-16.65,19.48-33.17,28.84-49.96.13-.23.27-.46.4-.69,15.91-27.55-4.3-63.2-36.27-63.2h-47.31c-37.52,0-75.04,0-112.56,0-45.7,0-91.4,0-137.1,0h-117.71c-19.22,0-38.47-.3-57.69,0-.27,0-.53,0-.8,0-31.96,0-52.17,35.64-36.27,63.2,7.88,13.66,15.77,27.31,23.65,40.97,18.76,32.49,37.52,64.99,56.28,97.48,22.85,39.58,45.7,79.15,68.55,118.73,19.62,33.98,39.24,67.96,58.86,101.94,9.61,16.65,18.96,33.47,28.84,49.96.14.23.27.46.4.69,5.26,9.11,14.97,16.51,25.1,19.3s23.44,1.52,32.36-4.23c19.2-12.38,26.83-37.1,15.07-57.46-7.88-13.66-15.77-27.31-23.65-40.97-18.76-32.49-37.52-64.99-56.28-97.48-22.85-39.58-45.7-79.15-68.55-118.73-19.62-33.98-39.24-67.96-58.86-101.94-9.61-16.64-18.9-33.51-28.84-49.96-.14-.23-.27-.46-.4-.69-12.09,21.07-24.18,42.13-36.27,63.2h47.31c37.52,0,75.04,0,112.56,0,45.7,0,91.4,0,137.1,0,39.24,0,78.48,0,117.71,0,19.22,0,38.48.39,57.69,0,.27,0,.53,0,.8,0-12.09-21.07-24.18-42.13-36.27-63.2-7.88,13.66-15.77,27.31-23.65,40.97-18.76,32.49-37.52,64.99-56.28,97.48-22.85,39.58-45.7,79.15-68.55,118.73-19.62,33.98-39.24,67.96-58.86,101.94-9.61,16.65-19.48,33.17-28.84,49.96-.13.23-.27.46-.4.69-5.47,9.47-7.14,21.79-4.23,32.36,2.68,9.74,10.22,20.3,19.3,25.1,20.04,10.59,45.73,5.26,57.46-15.07Z"/>
    </g>
  </g>
</svg>